<?xml version="1.0" standalone="no"?>
<!DOCTYPE svg PUBLIC "-//W3C//DTD SVG 20010904//EN"
 "http://www.w3.org/TR/2001/REC-SVG-20010904/DTD/svg10.dtd">
<svg version="1.0" xmlns="http://www.w3.org/2000/svg"
 width="200.000000pt" height="200.000000pt" viewBox="0 0 200.000000 200.000000"
 preserveAspectRatio="xMidYMid meet">

<g transform="translate(0.000000,200.000000) scale(0.100000,-0.100000)"
fill="#000000" stroke="none">
<path d="M1574 1296 c-6 -17 2 -36 17 -36 12 0 12 37 -1 45 -6 3 -13 -1 -16
-9z"/>
<path d="M1468 1178 l-3 -123 -40 0 -40 0 0 75 0 75 38 3 c49 4 48 22 -2 22
-53 0 -71 -26 -71 -100 0 -76 18 -100 75 -100 69 0 75 12 75 151 0 98 -3 119
-15 119 -12 0 -15 -23 -17 -122z"/>
<path d="M860 1155 c0 -77 4 -125 10 -125 6 0 10 45 10 115 0 118 11 147 29
78 5 -21 16 -64 25 -96 24 -95 35 -91 61 23 31 136 44 135 45 -2 0 -99 2 -118
15 -118 13 0 15 18 13 123 l-3 122 -30 0 c-29 0 -31 -2 -51 -79 -11 -44 -23
-76 -26 -70 -3 5 -11 34 -18 64 -17 75 -27 90 -55 90 l-25 0 0 -125z"/>
<path d="M520 1230 c0 -5 5 -10 10 -10 6 0 10 5 10 10 0 6 -4 10 -10 10 -5 0
-10 -4 -10 -10z"/>
<path d="M1170 1227 c-23 -12 -25 -19 -28 -92 -3 -92 5 -105 73 -105 44 0 65
13 65 42 0 24 -16 23 -23 -2 -4 -15 -14 -20 -40 -20 -38 0 -61 19 -55 47 2 13
16 20 50 24 63 9 68 14 68 60 0 33 -4 41 -26 49 -33 13 -54 12 -84 -3z m64
-17 c53 -20 22 -70 -43 -70 -26 0 -31 4 -31 23 0 26 10 42 30 50 8 3 16 6 17
6 1 1 13 -3 27 -9z"/>
<path d="M1570 1143 c0 -86 9 -121 26 -110 5 3 8 48 6 101 -3 75 -6 96 -18 96
-11 0 -14 -18 -14 -87z"/>
<path d="M1680 1220 c0 -5 17 -10 39 -10 42 0 65 -18 59 -47 -2 -13 -15 -19
-48 -23 -35 -4 -48 -11 -59 -31 -13 -24 -13 -29 2 -53 13 -20 26 -26 52 -26
19 0 35 5 35 10 0 6 -9 10 -19 10 -34 0 -51 12 -51 35 0 25 17 35 60 35 27 0
29 -3 32 -42 2 -23 8 -43 14 -45 18 -6 5 169 -14 185 -19 14 -102 16 -102 2z"/>
<path d="M580 1210 c0 -5 5 -10 10 -10 6 0 10 5 10 10 0 6 -4 10 -10 10 -5 0
-10 -4 -10 -10z"/>
<path d="M640 1170 c0 -5 5 -10 11 -10 5 0 7 5 4 10 -3 6 -8 10 -11 10 -2 0
-4 -4 -4 -10z"/>
<path d="M382 1139 c-59 -29 -92 -88 -92 -161 0 -144 161 -222 282 -137 34 25
68 95 68 143 0 40 -27 101 -57 128 -27 25 -87 48 -125 48 -18 0 -52 -10 -76
-21z m36 -29 c-23 -32 -34 -35 -57 -21 -11 7 -7 14 20 30 49 30 64 27 37 -9z
m118 14 c35 -17 40 -36 12 -42 -9 -2 -26 11 -38 27 -25 35 -21 37 26 15z m-90
-61 c-3 -3 -12 -3 -21 1 -14 5 -14 9 2 33 l18 27 3 -28 c2 -15 1 -30 -2 -33z
m64 10 c0 -7 -9 -13 -20 -13 -16 0 -20 7 -20 32 0 30 0 31 20 13 11 -10 20
-24 20 -32z m-147 -6 c13 -9 16 -20 11 -45 -6 -28 -10 -32 -40 -32 -39 0 -39
-2 -18 50 18 44 22 46 47 27z m236 0 c6 -8 14 -28 17 -46 7 -32 6 -32 -26 -29
-28 2 -35 8 -41 32 -6 22 -4 33 9 42 22 17 27 17 41 1z m-165 -23 c9 -3 16
-17 16 -30 0 -20 -5 -24 -30 -24 -30 0 -37 11 -24 44 7 17 14 19 38 10z m96
-1 c0 -5 3 -18 6 -30 6 -21 3 -23 -30 -23 -31 0 -36 3 -36 24 0 13 6 27 13 29
19 8 47 8 47 0z m-155 -104 c7 -32 -4 -49 -33 -49 -11 0 -42 56 -42 75 0 3 15
5 34 5 30 0 35 -4 41 -31z m75 5 c0 -22 -4 -25 -27 -22 -20 2 -29 9 -31 26 -3
19 1 22 27 22 27 0 31 -4 31 -26z m90 14 c-1 -43 -62 -52 -68 -10 -3 19 1 22
32 22 22 0 36 -5 36 -12z m80 -3 c0 -9 -7 -29 -15 -46 -15 -28 -16 -28 -40
-13 -13 8 -22 22 -19 30 2 8 6 21 9 29 6 21 65 20 65 0z m-170 -82 l0 -38 -20
30 c-14 22 -16 31 -7 37 22 14 27 8 27 -29z m52 29 c16 -6 15 -10 -7 -37 l-24
-30 -1 38 c0 38 3 40 32 29z m-90 -42 c19 -34 11 -37 -34 -14 -30 16 -31 17
-13 30 26 19 28 18 47 -16z m147 21 c20 -13 1 -36 -40 -50 -35 -12 -36 -9 -7
29 24 33 26 34 47 21z"/>
<path d="M680 1110 c0 -5 5 -10 10 -10 6 0 10 5 10 10 0 6 -4 10 -10 10 -5 0
-10 -4 -10 -10z"/>
<path d="M705 1050 c-3 -5 -1 -10 4 -10 6 0 11 5 11 10 0 6 -2 10 -4 10 -3 0
-8 -4 -11 -10z"/>
<path d="M703 936 c-22 -105 -94 -177 -199 -199 -65 -14 -73 -32 -9 -24 118
17 215 114 232 232 8 64 -10 56 -24 -9z"/>
<path d="M927 943 c-4 -3 -7 -55 -7 -115 l0 -108 -35 0 c-33 0 -35 2 -35 35 0
24 -5 35 -15 35 -10 0 -15 -10 -15 -28 0 -43 22 -66 63 -66 61 0 67 12 67 140
0 104 -5 126 -23 107z"/>
<path d="M1035 884 c-12 -13 -15 -33 -13 -93 3 -73 4 -76 32 -90 23 -11 36
-11 67 -2 l39 12 0 82 c0 51 -5 88 -12 95 -18 18 -94 15 -113 -4z m100 -84 l0
-75 -42 -3 -43 -3 0 74 c0 40 3 77 7 81 4 4 23 6 43 4 l35 -3 0 -75z"/>
<path d="M1252 888 c-15 -15 -17 -188 -2 -188 6 0 10 31 10 74 0 95 4 106 44
106 48 0 56 -15 56 -102 0 -45 4 -78 10 -78 15 0 13 173 -2 188 -7 7 -33 12
-58 12 -25 0 -51 -5 -58 -12z"/>
<path d="M1466 878 c-21 -30 -22 -141 -1 -161 38 -39 127 -25 133 21 4 28 -18
29 -25 1 -5 -17 -12 -20 -47 -17 -35 3 -42 7 -44 27 -4 28 12 41 51 41 46 0
67 17 67 53 0 45 -16 57 -71 57 -38 0 -51 -5 -63 -22z m99 -33 c0 -28 -3 -30
-42 -33 -41 -3 -43 -2 -43 26 0 38 7 44 50 40 32 -3 35 -6 35 -33z"/>
<path d="M1686 884 c-38 -38 -9 -84 61 -99 61 -12 54 -65 -9 -65 -31 0 -41 4
-45 20 -7 25 -23 26 -23 1 0 -28 28 -46 70 -46 46 0 70 19 70 55 0 34 -13 45
-68 60 -39 10 -43 14 -40 38 2 22 9 28 36 30 27 3 34 -1 42 -24 8 -20 14 -24
22 -16 9 9 9 18 0 37 -10 21 -18 25 -56 25 -27 0 -51 -6 -60 -16z"/>
</g>
</svg>
